<mxfile host="app.diagrams.net" modified="2023-07-06T07:30:01.910Z" agent="Mozilla/5.0 (Windows NT 10.0; Win64; x64) AppleWebKit/537.36 (KHTML, like Gecko) Chrome/109.0.0.0 Safari/537.36" version="21.6.1" etag="OGIx7lV9kA4SUOjAP8-Z" type="github">
  <diagram name="Halaman-1" id="MdubrnhRfB5x-fohj2pm">
    <mxGraphModel>
      <root>
        <mxCell id="0" />
        <mxCell id="1" parent="0" />
      </root>
    </mxGraphModel>
  </diagram>
</mxfile>
